# xmcd
#
# Track frame offsets:
#	150
#	21514
#	45304
#	65196
#	90292
#	111863
#	138208
#	160679
#	187654
#	217613
#
# Disc length: 3158 seconds
#
# Revision: 2
# Processed by: cddbd v1.5.2PL0 Copyright (c) Steve Scherf et al.
# Submitted via: EasyCDDAExtractor 16.0.9.1
#
DISCID=750c540a
DTITLE=Various Artist - Europop - The Italian Connection
DYEAR=2000
DGENRE=Euro-House
TTITLE0=Jill Dreski - Heartbreaker (Factory Team Remix)
TTITLE1=Bakerstreet - As Long As You Love Me (Factory Team Remix)
TTITLE2=Heartclub feat. Pete - Stay Another Day (Factory Team Edit)
TTITLE3=Wienna - You Came (Club Remix)
TTITLE4=Wildside feat. Thomas - Dance Into The Light (Factory Team Remix)
TTITLE5=A Kay BJ feat. Alex Perry - Everything She Wants (Factory Team Remix)
TTITLE6=DJ Space'C feat. The Twins - Jump (Factory Team Edit)
TTITLE7=Ken Laszlo Duet With Jenny - Whatever Love (Factory Team Edit)
TTITLE8=Mark Farina - To My Heart (Boom Boom Mix)
TTITLE9=Gary D - Yellow River (Long Edit)
EXTD=
EXTT0=
EXTT1=
EXTT2=
EXTT3=
EXTT4=
EXTT5=
EXTT6=
EXTT7=
EXTT8=
EXTT9=
PLAYORDER=
